<?xml version="1.0"?>
<svg xmlns="http://www.w3.org/2000/svg" height="512px" viewBox="0 0 512 512" width="512px"><path d="m467 90h-75v-45c0-24.8125-20.1875-45-45-45h-182c-24.8125 0-45 20.1875-45 45v45h-75c-24.8125 0-45 20.1875-45 45v332c0 24.8125 20.1875 45 45 45h422c24.8125 0 45-20.1875 45-45v-332c0-24.8125-20.1875-45-45-45zm-317-45c0-8.269531 6.730469-15 15-15h182c8.269531 0 15 6.730469 15 15v45h-212zm-105 75h422c8.269531 0 15 6.730469 15 15v78.292969l-166.242188 27.707031h-119.515624l-166.242188-27.707031v-78.292969c0-8.269531 6.730469-15 15-15zm135 148.707031v17.292969c0 24.8125 20.1875 45 45 45h62c24.8125 0 45-20.1875 45-45v-17.292969l60-10v223.292969h-272v-223.292969zm30 2.292969h92v15c0 8.269531-6.730469 15-15 15h-62c-8.269531 0-15-6.730469-15-15zm-180 196v-223.292969l60 10v228.292969h-45c-8.269531 0-15-6.730469-15-15zm437 15h-45v-228.292969l60-10v223.292969c0 8.269531-6.730469 15-15 15zm0 0" fill="#4a4a4a"/></svg>
