<?xml version="1.0" encoding="UTF-8"?>
<svg width="1024px" height="400px" viewBox="0 0 1024 400" version="1.1" xmlns="http://www.w3.org/2000/svg" xmlns:xlink="http://www.w3.org/1999/xlink">
    <!-- Generator: Sketch 51.1 (57501) - http://www.bohemiancoding.com/sketch -->
    <title>cravery-banner</title>
    <desc>Created with Sketch.</desc>
    <defs>
        <linearGradient x1="67.0505047%" y1="0%" x2="32.7401269%" y2="100%" id="linearGradient-1">
            <stop stop-color="#EC552E" offset="0%"></stop>
            <stop stop-color="#FC6076" offset="100%"></stop>
        </linearGradient>
        <linearGradient x1="17.0985854%" y1="-14.2389902%" x2="80.9344947%" y2="85.2136195%" id="linearGradient-2">
            <stop stop-color="#EC552E" offset="0%"></stop>
            <stop stop-color="#FD6C6B" offset="100%"></stop>
            <stop stop-color="#FC6076" offset="100%"></stop>
        </linearGradient>
        <linearGradient x1="17.0985854%" y1="-14.2389902%" x2="80.9344947%" y2="85.2136195%" id="linearGradient-3">
            <stop stop-color="#FBDDD5" offset="0%"></stop>
            <stop stop-color="#763964" offset="100%"></stop>
            <stop stop-color="#FC6076" offset="100%"></stop>
        </linearGradient>
        <polygon id="path-4" points="0 0.30128565 52.6883645 0.30128565 52.6883645 80.6501961 0 80.6501961"></polygon>
    </defs>
    <g id="cravery-banner" stroke="none" stroke-width="1" fill="none" fill-rule="evenodd">
        <rect fill="#FFFFFF" x="0" y="0" width="1024" height="400"></rect>
        <g id="Bubbles" transform="translate(0.000000, -125.000000)">
            <circle id="Oval-27" fill-opacity="0.262850996" fill="#988D9F" cx="356.5" cy="197.5" r="22.5"></circle>
            <circle id="Oval-26-Copy" fill="#9B84AA" cx="342.5" cy="212.5" r="12.5"></circle>
            <circle id="Oval-28" fill="#F7BBAB" opacity="0.260416667" cx="190" cy="287" r="10"></circle>
            <circle id="Oval-28-Copy" fill="#FF3660" opacity="0.260416667" cx="175.5" cy="494.5" r="4.5"></circle>
            <circle id="Oval-29" fill="#EAF8FA" opacity="0.654834692" cx="346" cy="488" r="9"></circle>
            <circle id="Oval-30" fill="#EAF8FA" cx="43" cy="240" r="16"></circle>
            <circle id="Oval-31" fill="#F7BBAB" opacity="0.517606431" cx="424" cy="389" r="9"></circle>
            <circle id="Oval-31-Copy" fill="#F7BBAB" cx="55.5" cy="414.5" r="10.5"></circle>
            <circle id="Oval-31-Copy-2" fill="#F7BBAB" opacity="0.517606431" cx="263" cy="127" r="4"></circle>
        </g>
        <g id="Bubbles" transform="translate(524.000000, 0.000000)">
            <circle id="Oval-23" fill-opacity="0.8" fill="#7B5B8F" opacity="0.638870018" cx="467.5" cy="32.5" r="32.5"></circle>
            <circle id="Oval-27" fill-opacity="0.262850996" fill="#988D9F" cx="356.5" cy="197.5" r="22.5"></circle>
            <circle id="Oval-26" stroke="#C870FF" stroke-width="2" cx="440.5" cy="23.5" r="15.5"></circle>
            <circle id="Oval-26-Copy" fill="#9B84AA" cx="342.5" cy="212.5" r="12.5"></circle>
            <circle id="Oval-28" fill="#F7BBAB" opacity="0.260416667" cx="190" cy="287" r="10"></circle>
            <circle id="Oval-30" fill="#EAF8FA" cx="43" cy="240" r="16"></circle>
            <circle id="Oval-30-Copy" fill-opacity="0.262850996" fill="#988D9F" opacity="0.427932518" cx="111.5" cy="94.5" r="15.5"></circle>
            <circle id="Oval" fill="#9B84AA" cx="124" cy="100" r="10"></circle>
            <circle id="Oval-31" fill="#F7BBAB" opacity="0.517606431" cx="250" cy="17" r="9"></circle>
            <circle id="Oval-31" fill="#F7BBAB" opacity="0.517606431" cx="424" cy="389" r="9"></circle>
            <circle id="Oval-31-Copy-2" fill="#F7BBAB" opacity="0.517606431" cx="263" cy="127" r="4"></circle>
        </g>
        <g id="BG" transform="translate(-250.000000, 197.000000)" opacity="0.400000006">
            <g id="bg" transform="translate(653.000000, 315.000000) rotate(1.000000) translate(-653.000000, -315.000000) translate(6.000000, 12.000000)">
                <path d="M145.459975,104.428198 C145.459975,104.428198 190.181831,156.642298 300.671123,158.224543 C411.160415,159.806789 403.268323,137.655352 479.558548,112.339426 C555.848773,87.0234987 617.670163,74.3655352 709.744573,74.3655352 C801.818983,74.3655352 929.407808,107.592689 1039.8971,60.1253264 C1150.38639,12.6579634 1271.39847,0 1271.39847,0 L1293.94544,605.978311 L132.43051,555.353687 L145.459975,104.428198 Z" id="Path-2" fill="url(#linearGradient-1)"></path>
                <path d="M146.853649,123.568345 C146.853649,123.568345 -79.3119389,172.187672 31.1773531,174.016163 C141.666645,175.844654 236.446143,100.488279 383.690809,109.144101 C530.935474,117.799923 551.03788,126.205848 643.11229,126.205848 C735.1867,126.205848 807.233095,94.8358238 930.875874,60.0944922 C1054.51865,25.3531606 1278.05354,72.3705932 1278.05354,72.3705932 L1291.20703,538.635833 L131.069465,534.97885 L146.853649,123.568345 Z" id="Path-2-Copy" fill="url(#linearGradient-2)"></path>
            </g>
            <g id="bg-copy" style="mix-blend-mode: multiply;" transform="translate(652.500000, 348.000000) rotate(1.000000) translate(-652.500000, -348.000000) translate(6.000000, 12.000000)" fill="url(#linearGradient-3)">
                <path d="M145.434063,104.603774 C145.434063,104.603774 190.14803,156.90566 300.617831,158.490566 C411.087632,160.075472 403.196932,137.886792 479.4737,112.528302 C555.750467,87.1698113 617.560951,74.490566 709.619119,74.490566 C801.677286,74.490566 929.243604,107.773585 1039.71341,60.2264151 C1150.18321,12.6792453 1271.17394,0 1271.17394,0 L1292.33981,559.457215 L132.406897,556.287403 L145.434063,104.603774 Z" id="Path-2" opacity="0.159999996"></path>
                <path d="M146.827492,144.337192 C146.827492,144.337192 -79.2981996,206.14548 31.1716015,208.469985 C141.641403,210.794491 236.404181,114.996198 383.622872,126.000084 C530.841562,137.00397 550.940422,147.690171 642.998589,147.690171 C735.056757,147.690171 807.090443,107.810402 930.711411,63.6447928 C1054.33238,19.4791834 1277.82784,79.2510306 1277.82784,79.2510306 L1290.979,672 L131.046092,667.350988 L146.827492,144.337192 Z" id="Path-2-Copy" opacity="0.159999996"></path>
            </g>
        </g>
        <g id="Logo1" transform="translate(327.000000, 144.000000)">
            <path d="M342.118206,44.7800517 C342.471456,43.764205 342.774333,42.7311406 343.059994,41.6968463 C343.848749,38.842391 344.556524,35.9676432 345.408405,33.1304056 C346.23223,30.384791 347.203986,27.6785311 348.092212,24.9489044 C348.495197,23.7116868 348.880967,22.4670901 349.222739,21.2138846 C349.670997,19.5683606 350.016595,17.8976248 350.501836,16.2625544 C350.986439,14.6299437 351.610684,13.034843 352.132269,11.4108412 C352.599018,9.95778688 353.105301,8.50596242 353.420293,7.02154724 C353.864725,4.92897688 354.992064,3.62965241 357.222512,3.62842257 C360.99285,3.62719273 364.774028,3.79322094 368.531613,4.10375519 C370.570133,4.27224307 371.280459,5.22844258 370.902979,7.09041821 C370.469387,9.22787768 369.743758,11.3149138 369.129077,13.4197825 C368.751597,14.7129578 368.313542,15.9901452 367.960292,17.2882398 C367.499919,18.9774231 367.148582,20.6930479 366.65569,22.3723925 C366.16471,24.0474327 365.544291,25.6880374 365.005489,27.3507792 C364.590389,28.6328859 364.177839,29.9174523 363.828414,31.2155469 C363.372505,32.9047302 363.03137,34.6221998 362.544855,36.3027743 C362.073004,37.9366148 361.467251,39.535405 360.943752,41.1563323 C360.501871,42.5251426 360.056164,43.893953 359.679959,45.2793661 C359.220862,46.9679345 358.890566,48.6884787 358.39895,50.3678233 C357.920723,52.0016639 357.292015,53.5949198 356.761502,55.215847 C356.342576,56.4973388 355.940865,57.7849799 355.592716,59.0843043 C355.139995,60.7741025 354.802686,62.4921871 354.312982,64.1715317 C353.836669,65.8047573 353.214337,67.4004729 352.685099,69.0201703 C352.267448,70.3010472 351.857449,71.5862285 351.506749,72.8843232 C351.05084,74.5741214 346.80914,87.2101339 346.286279,88.8802547 C345.714957,90.7028755 344.755316,92.0212625 342.5,91.9997403 C338.686303,91.9634601 334.868143,91.8054258 331.064648,91.5280972 C329.005723,91.3780569 328.253314,90.0147808 328.787014,88.2026136 C329.623592,85.3604567 334.266365,71.5776197 335.108681,68.7373074 C335.579256,67.1508156 336.237933,65.6141323 336.744216,64.0368643 C336.949534,63.3973483 337.129985,62.6865016 337.02605,62.0494452 C336.958461,61.6356045 336.41137,61.0483566 335.984792,60.9641126 C333.716723,60.5170663 331.381702,60.3381248 329.144878,59.7957659 C327.838363,59.4790825 324.491415,56.4389215 324.240824,55.5725002 C323.728803,53.8082968 323.360887,52.0071982 322.95854,50.2171681 C322.663952,48.9049303 322.378291,47.589003 322.144279,46.2663116 C321.840127,44.5445376 321.646924,42.804316 321.302601,41.089921 C320.959553,39.3810603 320.470486,37.6974112 320.080891,35.9959295 C319.769725,34.6394176 319.478326,33.2773713 319.237937,31.9091759 C318.93506,30.1886317 318.750784,28.449025 318.409649,26.7358599 C318.077441,25.0712733 317.594113,23.4325134 317.207706,21.7759208 C316.902917,20.4655278 316.608967,19.1502154 316.374955,17.8269091 C316.069527,16.1069798 315.885251,14.3673731 315.545391,12.6535931 C315.205531,10.9428876 314.674381,9.26477283 314.346637,7.5522226 C314.119001,6.360509 313.94939,5.12882565 314.013791,3.92788827 C314.08967,2.52956179 315.419139,1.99089249 316.592388,2.00011628 C320.460284,2.03209208 324.339658,2.14708199 328.188425,2.49143679 C330.23906,2.67468274 331.324315,4.34910799 331.585746,6.31746465 C331.826134,8.1259423 332.359197,9.90244414 332.76027,11.6930891 C333.05422,13.0065567 333.377501,14.3144901 333.624266,15.6347218 C333.93862,17.3103769 334.1382,19.0044796 334.479973,20.6733705 C334.821107,22.3391869 335.289769,23.9822513 335.679365,25.6406886 C335.966301,26.8613034 336.242397,28.0849928 336.477684,29.3148314 C336.789488,30.9443675 337.021587,32.586202 337.353795,34.2120487 C337.712146,35.9664134 338.167418,37.7029455 338.542985,39.4536207 C338.891134,41.0770077 339.165955,42.7133079 339.516016,44.3366949 C339.792113,45.6188016 340.133247,46.8886099 340.446964,48.1633376 C340.575766,48.1504243 340.704569,48.1368961 340.834009,48.1239828 C341.26505,47.009749 341.724785,45.905354 342.118206,44.7800517 Z" id="Fill-1" fill="#F07758"></path>
            <path d="M179.716503,62.4205356 C180.062343,61.3032595 180.483592,60.2059347 180.735821,59.063266 C181.155769,57.1654685 181.437252,55.229582 181.833148,53.3245295 C182.250496,51.3191155 182.730252,49.3294209 183.189855,47.3348895 C183.555847,45.7478495 183.974496,44.1741105 184.294333,42.576188 C184.686328,40.6167226 184.947658,38.624005 185.359806,36.669981 C185.770653,34.7213982 186.310866,32.8060677 186.769819,30.868972 C187.109158,29.4391246 187.434846,28.0044405 187.721529,26.5606876 C188.110924,24.5988039 188.42036,22.6169688 188.831858,20.6605264 C189.253106,18.6569263 189.756915,16.6756958 190.221068,14.6829782 C190.328331,14.221074 190.463546,13.7609836 190.515552,13.2900106 C190.795085,10.7713026 192.014626,9.21751488 194.335395,9.11533973 C197.955013,8.95572886 201.588934,8.96479766 205.209203,9.12380395 C207.439611,9.22174698 208.248955,10.3384185 207.934968,12.8045275 C207.615781,15.3020749 206.989109,17.7530692 206.47815,20.2197828 C206.158313,21.7651062 205.772168,23.2947105 205.474434,24.8448706 C205.086989,26.8617717 204.800956,28.9028563 204.392058,30.9137115 C203.97211,32.9717244 203.448799,35.0037402 202.983995,37.0514751 C202.623854,38.6385151 202.24486,40.2225321 201.944525,41.8246868 C201.55643,43.8947915 201.2977,45.9963347 200.873851,48.056766 C200.461703,50.0615753 199.892238,52.0258773 199.427434,54.0179904 C199.093945,55.4496515 198.796861,56.8921953 198.521229,58.3395757 C198.137685,60.3588952 197.824998,62.395143 197.417401,64.4084165 C196.999403,66.4664295 196.505996,68.5057003 196.039892,70.5516215 C195.981385,70.8091754 195.870222,71.0522193 195.816916,71.3109823 C195.052427,75.003193 193.726924,76.3792322 190.380337,76.9971198 C183.06049,78.3495801 175.745193,78.3386976 168.431197,76.9366611 C165.482456,76.370768 164.028887,74.7184327 163.380112,71.5473757 C162.685182,68.1520171 161.781577,64.8098621 161.043092,61.4247814 C160.606241,59.4211813 160.359213,57.3686096 159.940564,55.3589635 C159.512815,53.3045781 158.969352,51.2792128 158.498697,49.2351053 C158.144406,47.6982461 157.792066,46.1595731 157.499532,44.6075991 C157.117938,42.590698 156.848156,40.5465906 156.434058,38.5381537 C156.020611,36.533949 155.476498,34.5623919 155.012994,32.5702789 C154.655453,31.0340242 154.299211,29.4959558 154.004727,27.9445864 C153.621183,25.9270808 153.352052,23.8823687 152.937304,21.8739318 C152.523206,19.8679133 151.932938,17.9060296 151.527941,15.898802 C151.245158,14.500393 150.994879,13.0572447 151.00008,11.6340477 C151.00528,9.89041982 152.372388,9.21388736 153.591279,9.16491584 C157.403321,9.01195542 161.230964,8.97507563 165.039754,9.18305344 C167.125196,9.29732032 168.312233,11.178794 168.663274,13.4738049 C168.996762,15.651526 169.611083,17.7766481 170.09864,19.9259537 C170.435379,21.4120276 170.800721,22.8914512 171.093905,24.3884077 C171.478749,26.3527098 171.755682,28.3436136 172.17108,30.2994514 C172.596229,32.3042608 173.142942,34.2764224 173.616197,36.2685354 C173.967888,37.7491681 174.320228,39.2322192 174.611462,40.7279666 C174.993706,42.6922686 175.267388,44.683777 175.678886,46.6396149 C176.089083,48.5924297 176.646848,50.5071557 177.076547,52.4551339 C177.507547,54.4079487 177.827384,56.3903884 178.258384,58.3432033 C178.56652,59.7379847 178.978017,61.1055597 179.34336,62.4852264 C179.468174,62.4634613 179.592338,62.4423008 179.716503,62.4205356" id="Fill-3" fill="#F07758"></path>
            <path d="M132.524875,56.4141613 L132.519087,56.4141613 C132.593046,55.5436466 132.647712,54.6712823 132.745467,53.8032336 C132.886954,52.551098 132.439983,51.8063516 131.012889,51.8186819 C127.969623,51.8445754 124.908349,51.6750346 121.888235,51.9413677 C119.383265,52.163312 117.47447,53.3698257 117.486047,56.1145365 C117.488619,56.7298154 117.393437,57.3444777 117.376072,57.9597566 C117.318834,59.9554055 118.479674,61.798776 120.505517,62.2377324 C122.339066,62.6359991 124.296094,62.8086224 126.168873,62.6803879 C130.830241,62.3610348 132.135141,60.996694 132.512012,56.5682893 C132.516514,56.5171188 132.521016,56.4653318 132.524875,56.4141613 M151.578088,55.9554765 C151.028859,62.4054236 150.422393,68.8522882 149.972849,75.3084005 C149.863517,76.8755736 149.263482,77.7855452 147.701332,77.8582936 C143.813,78.0401646 139.853924,78.3576682 136.264002,76.4982684 C135.183553,75.9384756 134.477402,74.7473747 133.459335,74.0272888 C132.987282,73.6937559 131.929985,73.4822923 131.560831,73.750475 C127.228743,76.894069 122.213656,76.814539 117.259024,76.3946944 C113.33339,76.061778 109.450846,75.2720263 105.945174,73.2344546 C102.932777,71.4841774 100.816897,69.0859462 99.4914171,66.034829 C97.3639605,61.1372587 97.8520922,56.0276084 98.8650136,51.0640713 C100.506268,43.0222905 107.104727,37.9052421 115.638349,37.3084586 C121.149285,36.9237552 126.397183,37.8392753 131.507452,39.7066897 C135.238218,41.0697975 135.069076,41.0901424 135.007336,37.1142573 C134.962961,34.2154185 134.433669,31.5527038 132.732604,29.1538561 C131.220618,27.0231911 128.990262,25.8696974 126.507157,25.069465 C122.350642,23.7297847 118.111164,23.6853958 113.804158,24.1422311 C110.33257,24.5102887 108.942778,23.6459391 108.308014,20.3611639 C107.769718,17.5726807 107.235282,14.7311775 107.847536,11.8440524 C108.109288,10.6085626 108.798718,9.95567658 110.053454,9.78798535 C116.554159,8.92055316 123.070299,8.60859815 129.57036,9.68872694 C135.924432,10.7448118 141.962087,12.5518081 146.521198,17.2989494 C149.476999,20.3765767 151.055227,24.0633176 152.070078,28.1248978 C153.610362,34.293099 152.88749,40.4255426 152.374919,46.5869622 C152.114454,49.7102113 151.844341,52.8322274 151.578088,55.9554765" id="Fill-5" fill="#F07758"></path>
            <path d="M57.002642,43.1997347 C57.0020188,33.4662607 56.9951629,23.7327868 57.0063816,13.9986879 C57.0094978,11.104395 57.937528,9.94817775 60.8082512,9.82380628 C64.327162,9.67068562 67.8629007,9.67881039 71.3818116,9.83630592 C74.1521903,9.96005241 75.1824347,11.2562656 75.2410209,14.0699358 C75.2566023,14.7980402 75.2154673,15.5336443 75.3158117,16.250499 C75.3557002,16.5354909 75.6635893,16.8786062 75.9359528,16.9998528 C76.0961299,17.0711007 76.4894053,16.814858 76.6713964,16.6104888 C82.2613913,10.3231671 89.5921438,8.67571384 97.5162373,9.05007822 C100.712301,9.20132393 102.27356,10.2244199 101.960685,14.0030627 C101.616024,18.1704446 100.544645,22.1109578 98.3314579,25.6971061 C97.6078562,26.8695728 96.5919467,27.0889416 95.2662784,26.9876945 C92.3787273,26.7658258 89.4550272,26.4383351 86.5880436,26.6702035 C82.2894378,27.0176936 79.5520917,29.7776154 77.5869614,33.4681357 C75.4572911,37.4673973 75.3594397,41.8453981 75.2871419,46.1684005 C75.144416,54.754407 75.250993,63.3447883 75.2391511,71.9339197 C75.2347883,74.9294598 74.7293266,75.8538086 71.9851246,76.3794186 C67.839217,77.1725212 63.627244,77.3006425 59.4931782,76.2000487 C57.3360847,75.62569 57.0113676,75.09883 57.0088746,72.8688932 C56.9964094,62.9791737 57.0032653,53.0894542 57.002642,43.1997347" id="Fill-7" fill="#F07758"></path>
            <path d="M235.817225,36.2680127 C238.28891,36.0461581 240.756149,35.7736831 243.23228,35.6218221 C244.570713,35.5393296 245.150044,34.8925141 244.744131,33.7269962 C244.089208,31.8490438 243.391088,29.9535929 242.426172,28.2181274 C239.971638,23.8035331 234.191033,22.9492366 230.294524,25.9864575 C227.166645,28.4249834 226.312894,31.9265366 226.648931,35.7455607 C226.737229,36.743594 227.269552,37.0566902 228.247173,36.9566994 C230.767136,36.6985981 233.292816,36.4923671 235.817225,36.2680127 M246.194999,49.7561482 C240.87049,50.2367291 235.545981,50.7110605 230.222108,51.195391 C228.176028,51.3816239 228.178568,51.5316101 228.240821,53.480181 C228.369773,57.4929373 232.48099,60.5595305 235.315392,61.1657248 C241.873521,62.566846 248.226469,61.3888293 254.536857,59.6852358 C255.50622,59.4233849 256.459067,58.9678017 257.436053,58.9190562 C258.100505,58.8853093 259.110523,59.2134042 259.421786,59.7096086 C261.326845,62.7455796 262.435959,66.0515258 262.492494,69.673068 C262.52235,71.5803927 261.065765,72.2384573 259.767987,72.9665154 C255.118729,75.5725259 249.979708,76.6424276 244.735873,76.8805307 C240.209215,77.0861368 235.612045,77.0630139 231.124136,76.518064 C224.762294,75.7462599 219.402848,72.785907 215.546358,67.6132573 C212.98447,64.177323 211.50057,60.2851807 210.252976,56.1693089 C208.528323,50.4779569 208.470517,44.6678658 208.032842,38.8896468 C207.827027,36.1636473 208.64584,33.3707789 208.898662,30.5997835 C209.204844,27.2382175 210.324122,24.1297531 211.973817,21.2337692 C215.15188,15.6555318 220.015211,12.2377209 226.265252,10.4760078 C231.240383,9.0730117 236.236478,8.6767981 241.334209,9.25924458 C248.112763,10.0341734 253.714233,12.8926607 257.702215,18.4765226 C260.232341,22.0180721 261.610158,25.9852076 262.824085,30.1516997 C264.30735,35.2443567 264.261614,40.43263 264.936229,45.5702829 C265.19858,47.5669744 264.692936,48.0800522 262.641774,48.2706597 C257.160998,48.779363 251.677046,49.2618187 246.194999,49.7561482" id="Fill-9" fill="#F07758"></path>
            <path d="M267.002642,43.1997347 C267.002019,33.4662607 266.995163,23.7327868 267.006382,13.9986879 C267.010121,11.104395 267.938151,9.94817775 270.808251,9.82380628 C274.327785,9.67068562 277.863524,9.67881039 281.381811,9.83630592 C284.15219,9.96005241 285.182435,11.2562656 285.241644,14.0699358 C285.256602,14.7980402 285.21609,15.5336443 285.315812,16.250499 C285.3557,16.5354909 285.663589,16.8786062 285.935953,16.9998528 C286.096753,17.0711007 286.490028,16.814858 286.671396,16.6104888 C292.261391,10.3231671 299.592144,8.67571384 307.51686,9.05007822 C310.7123,9.20132393 312.27356,10.2244199 311.960685,14.0030627 C311.616024,18.1704446 310.544644,22.1109578 308.332081,25.6971061 C307.607856,26.8695728 306.591946,27.0889416 305.266901,26.9876945 C302.37935,26.7658258 299.455027,26.4383351 296.588043,26.6702035 C292.289438,27.0176936 289.552092,29.7776154 287.586961,33.4681357 C285.457291,37.4673973 285.35944,41.8453981 285.287765,46.1684005 C285.144416,54.754407 285.250993,63.3447883 285.239151,71.9339197 C285.234788,74.9294598 284.729326,75.8538086 281.985125,76.3794186 C277.83984,77.1725212 273.627244,77.3006425 269.493178,76.2000487 C267.336085,75.62569 267.011991,75.09883 267.008875,72.8688932 C266.996409,62.9785487 267.003889,53.0894542 267.002642,43.1997347" id="Fill-11" fill="#F07758"></path>
            <g id="Group-15">
                <mask id="mask-5" fill="white">
                    <use xlink:href="#path-4"></use>
                </mask>
                <g id="Clip-14"></g>
                <path d="M18.8220475,41.0643904 C18.8220475,43.812 18.5089728,46.6017677 18.8877931,49.2980543 C19.642303,54.6643551 20.9315444,59.9738341 26.1655262,63.0519878 C28.0759077,64.1762043 30.3244098,65.098795 32.5121754,65.3572426 C37.5808538,65.9541771 42.7102688,66.1411392 47.7376214,64.81102 C48.9604909,64.4878078 49.9028456,65.0138678 50.3843544,65.9389024 C52.2064488,69.4343603 53.1268882,73.1723802 52.4838329,77.0778106 C52.3617338,77.8171051 51.0944077,78.7415288 50.206528,78.9388777 C42.0997732,80.7357911 33.877807,81.2105282 25.6683637,79.9170682 C16.6374126,78.4940789 9.33901656,74.2501617 5.05740776,66.0843174 C3.64544113,63.3929186 2.83269936,60.3807516 1.92290445,57.4632876 C-0.529096144,49.599271 -0.0325597627,41.4926925 0.215395353,33.4484346 C0.306187,30.514474 1.0926305,27.5652386 1.85340188,24.6966536 C2.60853791,21.8476202 3.55402333,19.0175273 4.72930554,16.309021 C7.09802827,10.8510721 11.0997483,6.76540047 16.4977813,4.04100842 C21.244619,1.6453275 26.3358389,0.518667057 31.6637431,0.408078369 C33.9573279,0.360421365 36.2778372,0.179569146 38.541993,0.43435082 C42.6683168,0.898701112 46.7771084,1.56773213 50.8545925,2.3436859 C51.5289553,2.47260421 52.4187134,3.52900112 52.5088789,4.24141223 C52.9703509,7.89144993 52.0367623,11.3728551 50.5878529,14.7088454 C50.1032133,15.8257301 49.1095144,16.2436453 47.7520228,16.0597382 C44.561166,15.6271592 41.356534,15.1634199 38.143762,15.0400005 C33.5190234,14.8615922 29.117194,15.7951807 25.3947365,18.7034799 C23.0723488,20.517501 21.6979511,22.95534 20.5896669,25.6375739 C18.5240004,30.6366714 18.7512926,35.8581683 18.8220475,41.0643904" id="Fill-13" fill="#F07758" mask="url(#mask-5)"></path>
            </g>
        </g>
    </g>
</svg>