<?xml version="1.0" encoding="UTF-8"?>
<svg width="165px" height="166px" viewBox="0 0 165 166" version="1.1" xmlns="http://www.w3.org/2000/svg" xmlns:xlink="http://www.w3.org/1999/xlink">
    <!-- Generator: Sketch 51.1 (57501) - http://www.bohemiancoding.com/sketch -->
    <title>open-sign</title>
    <desc>Created with Sketch.</desc>
    <defs>
        <polygon id="path-1" points="0.06 0.025 164.897691 0.025 164.897691 166.001 0.06 166.001"></polygon>
    </defs>
    <g id="Page-1" stroke="none" stroke-width="1" fill="none" fill-rule="evenodd">
        <g id="Artboard" transform="translate(-378.000000, -268.000000)">
            <g id="open-sign" transform="translate(378.000000, 268.000000)">
                <rect id="Rectangle-5" fill="#FFFFFF" fill-rule="nonzero" transform="translate(82.002639, 108.993811) rotate(-13.000000) translate(-82.002639, -108.993811) " x="9.58504211" y="71.2438112" width="144.835194" height="75.5" rx="4"></rect>
                <mask id="mask-2" fill="white">
                    <use xlink:href="#path-1"></use>
                </mask>
                <g id="Clip-2"></g>
                <path d="M23.594,166.001 C22.062,166.001 20.562,165.576 19.234,164.747 C17.359,163.579 16.051,161.751 15.551,159.599 L0.219,93.611 C-0.281,91.458 0.086,89.24 1.254,87.365 C2.422,85.49 4.25,84.181 6.402,83.681 L7.355,83.458 L83.305,19.829 L81.258,17.974 C79.727,18.97 77.902,19.548 75.945,19.548 C70.562,19.548 66.184,15.169 66.184,9.787 C66.184,4.404 70.562,0.025 75.945,0.025 C81.328,0.025 85.707,4.404 85.707,9.787 C85.707,11.478 85.273,13.068 84.52,14.454 L87.02,16.716 L88.176,15.751 C89.043,15.025 90.297,15.001 91.191,15.697 L138.98,52.876 L139.418,52.775 C141.57,52.271 143.789,52.642 145.664,53.81 C147.539,54.978 148.848,56.806 149.348,58.958 L164.68,124.947 C165.18,127.099 164.812,129.314 163.645,131.193 C162.477,133.068 160.648,134.372 158.496,134.872 L25.48,165.783 C24.855,165.927 24.223,166.001 23.594,166.001 Z M8.957,88.017 L7.488,88.357 C6.586,88.568 5.82,89.115 5.328,89.904 C4.836,90.689 4.684,91.622 4.895,92.525 L20.227,158.513 C20.66,160.376 22.527,161.537 24.395,161.107 L157.41,130.197 C158.312,129.986 159.082,129.439 159.57,128.65 C160.062,127.865 160.219,126.931 160.008,126.029 L144.672,60.04 C144.461,59.138 143.914,58.372 143.125,57.88 C142.34,57.392 141.41,57.236 140.504,57.447 L9.051,87.994 C9.02,88.001 8.988,88.009 8.957,88.017 Z M86.902,23.079 L17.699,81.056 L132.965,54.275 L92.738,22.982 C92.734,23.548 92.527,24.115 92.121,24.564 C91.23,25.548 89.711,25.622 88.73,24.736 L86.902,23.079 Z M75.945,4.826 C73.207,4.826 70.984,7.052 70.984,9.787 C70.984,12.525 73.207,14.747 75.945,14.747 C78.68,14.747 80.906,12.525 80.906,9.787 C80.906,7.052 78.68,4.826 75.945,4.826 Z" id="Fill-1" fill="#000000" mask="url(#mask-2)"></path>
            </g>
        </g>
    </g>
</svg>